<svg width="345" height="344" viewBox="0 0 345 344" fill="none" xmlns="http://www.w3.org/2000/svg">
<g filter="url(#filter0_d_3447_1677)">
<ellipse cx="179.5" cy="311.5" rx="161.5" ry="24.5" fill="#2B77AA" fill-opacity="0.04"/>
<g clip-path="url(#clip0_3447_1677)">
<path d="M124.179 98.8545C126.983 96.1993 129.945 94.1597 133.047 91.909C134.726 90.6957 136.15 89.4737 137.811 88.489C137.837 86.6955 137.89 85.0074 137.231 83.17C135.991 79.7236 136.835 77.64 133.205 75.0816C129.576 72.5319 124.61 71.2483 119.503 70.3868C111.752 69.068 93.6114 64.9183 82.6516 70.3164C81.1663 71.0461 80.6566 73.6573 80.6302 75.6442C80.6302 75.7321 79.514 88.6121 81.0608 91.9265C83.6711 97.5093 85.4201 100.068 89.8937 103.91C94.8418 108.156 102.725 110.662 109.027 112.112C111.295 112.631 119.486 110.609 121.692 110.504C122.615 103.769 119.477 103.303 124.179 98.8457V98.8545Z" fill="#FAFAFA"/>
<g style="mix-blend-mode:multiply">
<path d="M125.076 97.9842C127.844 95.0038 131.193 92.463 134.858 90.5903C135.64 89.9925 136.422 89.4034 137.213 88.8232C136.73 87.267 136.238 85.9307 135.816 85.0427C132.327 86.7483 123.406 90.0101 118.018 91.8036C106.997 95.4785 100.361 96.4456 94.9387 97.3951C93.4446 97.6589 92.5657 97.2369 91.5726 97.2633C90.2982 97.2984 89.0502 96.8413 88.2592 96.7709C87.0727 96.6654 85.7719 96.0412 85.183 95.795C83.5044 95.0829 83.5483 95.1972 82.1333 95.8126C86.3432 99.4436 85.9213 100.015 92.7503 102.916C103.139 107.33 106.733 104.174 113.554 106.732C114.881 107.224 115.733 108.007 116.445 108.851C118.748 104.842 122.202 101.079 125.076 97.993V97.9842Z" fill="#EEEEEE"/>
</g>
<path d="M92.9172 99.549C98.4015 100.912 103.033 101.193 107.893 100.973C114.933 100.648 118.95 99.171 123.292 97.7994C123.775 95.2498 124.768 92.1815 124.698 88.5329C124.628 84.7525 123.661 83.293 123.898 77.0949C123.916 76.5146 124.214 75.5387 124.311 74.976C124.522 73.7628 124.478 73.7452 124.267 72.6902C116.823 77.0949 118.335 76.9718 114.626 79.7676C113 80.9896 111.523 82.449 109.581 83.2403C107.639 84.0316 105.978 85.2712 103.745 84.4536C96.7228 81.8688 99.1749 71.178 97.4347 56.8562C97.3117 55.8452 96.5558 51.8713 95.8615 49.858C94.2092 45.0401 92.4778 45.805 90.8343 44.7676C88.8831 47.5985 86.6947 49.7701 84.7787 52.7153C82.8627 55.6606 80.8676 58.7553 79.5229 62.184C76.7017 69.3933 75.4713 73.7716 77.3257 84.2601C77.563 85.5789 78.521 87.9703 79.8569 89.544C80.7182 90.555 81.8344 92.6914 83.2055 93.9223C84.3656 94.9597 85.9476 96.5158 87.556 97.3862C89.1644 98.2478 91.0452 99.1094 92.9172 99.5754V99.549Z" fill="#FAFAFA"/>
<path d="M207.604 70.879C209.555 72.6989 211.831 75.6529 216.006 79.9521C220.919 85.0074 222.096 86.5987 226.535 92.155C229.207 91.3638 229.602 91.7506 235.684 89.8164C238.136 89.034 242.856 87.4954 245.282 86.2206C253.227 82.0357 257.375 76.198 259.379 68.5492C260.179 65.4897 257.691 58.2628 257.357 55.6341C248.437 54.8253 246.784 52.6889 231.026 58.2892C219.082 62.5356 214.828 65.9556 207.612 70.879H207.604Z" fill="#FAFAFA"/>
<path d="M229.602 81.4819C230.279 76.7871 230.191 74.5891 230.551 73.5957C233.118 66.6062 233.592 66.3425 238.373 60.2849C243.585 53.6823 240.07 58.8079 247.865 47.7919C256.892 42.3322 256.769 42.1915 257.823 42.2443C258.192 42.2619 258.535 43.0971 258.579 43.5718C258.623 44.0466 258.975 44.618 259.185 45.1192C259.976 47.0709 260.196 47.7039 260.855 48.0205C261.145 50.658 262.288 56.0034 261.488 60.8388C261.137 62.9488 261.251 66.6414 258.228 71.2043C256.083 74.4485 252.849 77.4465 249.922 79.1081C247.69 80.3741 243.339 81.6049 241.001 81.939C237.257 82.4753 235.113 81.8863 229.593 81.4819H229.602Z" fill="#FAFAFA"/>
<path d="M220.216 65.5953C221.235 66.2283 221.446 66.7294 221.895 67.2394C222.334 67.7493 223.028 68.4262 223.6 68.7955C224.03 69.068 225.577 69.2263 226.025 69.4197C227.326 69.9736 228.917 71.0989 232.424 71.3363C235.025 71.5121 237.266 71.1165 239.683 70.3428C243.128 69.2351 246.697 67.2657 248.894 65.947C251.513 64.3732 254.853 60.4082 256.154 57.5772C257.463 54.7375 259.783 52.9 260.636 49.9548C261.488 47.0007 260.662 43.6247 261.137 40.9168C261.612 38.2178 259.986 34.5956 260.056 32.8196C260.179 29.7162 256.76 25.3203 256.092 24.4323C253.675 21.2497 249.747 18.5067 247.998 17.0736C245.106 14.7086 242.258 11.5436 240.14 10.849C235.095 9.18741 241.054 13.724 242.223 15.5878C242.627 16.2296 244.974 19.254 245.396 21.2761C245.818 23.2982 247.294 26.5511 246.978 29.1799C246.152 36.1605 244.983 38.9299 240.914 45.3743C239.086 48.2755 236.73 50.8867 234.849 53.0934C233.171 55.0628 222.677 63.5556 220.216 65.5953Z" fill="#FAFAFA"/>
<g style="mix-blend-mode:multiply">
<path d="M221.007 64.215C219.284 63.6699 214.644 62.2896 212.517 61.4632C208.166 59.7664 208.588 59.7928 205.055 57.5948C203.209 57.5948 195.721 57.9201 189.797 57.0849C182.441 56.0475 178.143 53.9814 174.689 53.2517C157.129 59.3004 147.145 66.9317 136.941 70.5627C132.45 72.1628 128.583 71.9957 124.065 72.9013C123.995 72.9628 118.142 78.3961 118.08 78.4665C116.507 80.1017 115.224 81.0776 114.274 82.8975C113.334 84.7174 113.624 86.6076 113.167 88.533C117.227 87.1967 117.895 86.8362 121.314 84.4097C124.276 82.3085 126.711 79.6709 128.952 77.8335C151.952 75.3806 156.189 69.8945 174.751 60.0126C178.038 61.5599 181.079 63.8809 188.523 64.3909C195.308 64.8568 200.265 62.9314 202.919 62.2633C204.027 63.3446 206.505 66.369 209.985 68.0922C214.239 70.2022 216.234 69.4813 218.634 69.2175C219.557 70.0528 221.112 72.0924 223.775 72.8661C226.456 73.6398 226.799 73.7541 230.455 73.6662C227.177 70.7825 226.131 70.7121 224.32 69.4549C220.91 67.0987 221.068 66.3954 221.016 64.2238L221.007 64.215Z" fill="#EEEEEE"/>
</g>
<path d="M205.169 57.6474C206.777 58.7903 208.148 60.3025 209.906 61.2168C211.998 62.3158 213.501 63.4763 215.988 63.7928C221.639 64.4961 225.779 62.7026 230.709 59.6079C237.705 55.2121 246.6 48.5127 249.72 40.8727C253.209 32.3535 251.882 27.307 248.375 20.2121C246.512 16.4492 243.62 13.249 241.036 10.6467C237.591 7.16512 233.935 5.08147 230.173 2.76924C228.046 1.45927 226.253 1.55598 224.197 1.13397C222.14 0.711969 220.303 1.09001 218.458 1.15156C215.68 1.23947 211.831 2.26811 208.913 1.97798C213.633 5.09026 217.702 5.4771 222.211 9.80264C224.601 12.0973 227.44 15.7019 227.414 20.4319C227.396 23.3595 227.739 27.7906 226.218 31.5447C224.97 34.6042 222.536 41.3562 218.475 46.2005C211.857 54.0867 209.651 54.8428 205.16 57.6474H205.169Z" fill="#FAFAFA"/>
<g style="mix-blend-mode:multiply">
<path d="M215.47 3.41113C217.763 3.77159 222.281 3.81555 227.255 6.98059C231.386 9.60932 233.311 12.3523 235.297 16.2295C247.408 39.9409 228.934 38.3056 219.319 59.1069C218.941 59.9157 218.976 61.762 218.968 61.9203C218.95 62.3774 219.152 62.8346 219.126 63.2654C219.099 63.6962 220.066 63.7665 219.679 64.2061C219.293 64.6457 218.062 64.1973 217.342 64.0567C217.087 64.0039 213.756 63.8457 211.919 62.7731C209.405 61.3136 207.032 57.7442 205.608 56.4518C210.662 52.4867 215.61 49.6997 219.943 44.6269C223.204 40.8113 226.623 36.2835 227.994 31.0524C229.365 25.8213 229.628 20.8276 227.22 15.6493C224.812 10.4709 219.75 7.09488 215.47 3.42872V3.41113Z" fill="#EEEEEE"/>
</g>
<path d="M121.701 74.9848C123.529 73.2616 122.975 74.0617 125.41 72.699C125.858 72.4528 126.28 72.1275 126.798 71.9165C135.684 71.4505 139.85 71.0813 150.107 65.5161C157.12 61.7181 162.068 54.7814 176.561 53.7C176.667 53.7 185.816 57.6387 187.336 57.8409C192.135 58.4827 199.676 57.6563 201.583 57.076C203.165 56.6012 204.563 56.9705 206.162 55.81C211.225 52.1614 216.19 49.2689 220.304 43.9675C223.468 39.8793 228.556 34.235 229.198 28.4588C229.866 22.3574 230.938 18.1022 226.421 12.4139C221.595 6.34758 220.04 3.96502 210.724 2.05721C210.68 2.04842 202.717 1.40662 193.392 0.404359C189.788 0.0175215 171.367 -1.22212 149.509 3.89469C145.062 4.9409 134.858 8.16748 125.884 12.0271C121.455 13.9349 117.676 16.2647 114.503 18.4187C110.504 21.1353 107.999 24.4058 105.195 27.2456C102.734 29.7337 100.985 32.2657 99.2277 34.3757C96.9777 37.0748 94.9563 39.0705 93.3391 41.5498C91.1419 44.9258 89.4017 47.0446 88.2855 50.8427C87.1693 54.6407 87.6615 58.4211 88.0921 62.5269C88.4437 65.8853 91.1243 74.1232 92.9524 77.2883C95.7561 82.1237 98.4806 84.6118 103.947 85.2975C105.705 85.5173 107.41 84.9986 109.08 84.4184C114.09 82.6864 118.748 77.7454 121.692 74.9672L121.701 74.9848Z" fill="#FAFAFA"/>
<path d="M231.738 74.7387C231.738 74.7387 231.747 74.6771 231.755 74.6508C231.755 74.6508 231.808 74.4485 231.808 74.4397C231.808 74.4134 231.808 74.343 231.834 74.3518C231.887 74.3694 231.799 74.3782 231.755 74.6508C231.755 74.6771 231.755 74.7475 231.729 74.7387H231.738Z" fill="#7A7A7A"/>
<g style="mix-blend-mode:multiply">
<path d="M219.82 5.52124C223.494 8.20273 227.519 10.2072 230.103 14.1723C232.353 17.6099 233.425 21.4255 233.61 25.5752C233.777 29.426 232.546 33.2592 230.982 36.6968C229.286 40.4069 226.245 43.6599 223.845 46.5963C222.562 48.17 220.752 49.3833 219.697 50.3856C218.308 51.7131 216.392 53.0758 215.513 53.8759C209.739 59.1334 208.271 57.5069 204.826 57.841C207.533 56.065 212.648 53.4363 216.7 49.0932C217.834 47.8711 219.627 46.0776 220.857 44.4072C221.885 43.0005 223.309 41.0487 224.188 39.3783C225.559 36.7847 227.378 33.9714 228.266 31.2635C229.374 27.9138 230.437 25.2236 230.121 21.6981C229.795 18.1726 228.433 15.5263 226.412 12.4228C224.838 10.0226 221.877 7.69281 219.829 5.51245L219.82 5.52124Z" fill="#EEEEEE"/>
</g>
<g style="mix-blend-mode:multiply">
<path d="M136.176 41.462C134.497 42.1213 128.908 45.9194 128.319 47.3261C127.554 49.1372 127.809 50.2801 128.714 51.9241C129.453 53.2517 130.753 53.7528 132.159 54.4562C133.258 55.01 134.972 54.4825 136.071 55.3266C138.101 56.8827 138.953 57.8498 137.828 60.6456C137.072 62.5006 135.455 64.7074 133.698 66.2547C128.117 71.1957 126.596 70.7209 122.747 71.7496C127.457 71.9606 131.263 72.8749 136.071 71.5737C143.805 69.4725 155.705 61.5599 161.066 58.9048C165.601 56.6629 170.312 54.9133 174.988 53.0055C170.119 50.4208 155.512 41.1894 142.39 41.2246C138.285 41.2334 139.744 40.0553 136.176 41.462Z" fill="#EEEEEE"/>
</g>
<g style="mix-blend-mode:multiply">
<path d="M174.962 53.0319C164.389 46.1743 156.813 43.0796 144.666 41.0136C142.961 40.7235 142.188 40.9784 140.966 41.2773C139.393 41.6554 136.783 40.1432 136.176 41.4708C135.658 42.5873 138.215 47.2557 141.582 48.3547C151.047 51.4406 155.846 49.269 164.028 52.689C164.793 53.0055 164.512 53.4012 164.855 53.8408C165.197 54.2803 165.092 54.6848 165.215 55.0892C165.487 55.9859 164.705 57.3663 164.564 57.7267C167.289 56.364 172.765 54.1397 174.953 53.0407L174.962 53.0319Z" fill="#EEEEEE"/>
</g>
<g style="mix-blend-mode:multiply">
<path d="M104.439 54.9835C104.097 53.9373 104.141 53.0318 103.244 52.4691C102.348 51.9064 101.952 52.39 101.451 53.2867C101.117 53.8846 100.81 54.7374 100.73 55.6078C100.651 56.4781 100.493 57.454 100.581 58.4827C100.941 62.395 101.513 64.6808 103.191 68.3558C103.85 69.7976 104.993 71.1516 105.793 72.2593C106.593 73.3671 108.078 74.2902 108.957 74.6771C110.398 75.3101 112.051 76.4706 112.868 77.0508C115.294 78.7652 114.916 79.5653 117.921 78.4224C118.704 78.1234 120.128 76.3035 121.156 75.398C121.771 74.8529 123.292 73.4902 124.074 72.8748C122.035 71.9868 119.899 71.5912 117.842 70.6417C115.786 69.6921 113.764 68.8042 111.91 67.3447C106.215 62.8346 105.837 59.2212 104.431 54.9923L104.439 54.9835Z" fill="#EEEEEE"/>
</g>
<g style="mix-blend-mode:multiply">
<path d="M113.132 82.915C111.049 83.7503 109.432 84.9284 107.129 85.3679C105.204 85.7372 103.235 86.0185 101.179 85.3943C95.9934 83.8294 94.4641 81.2446 92.4339 76.585C92.0559 75.7234 90.9222 71.7056 90.8431 71.477C89.5687 67.6438 90.3245 67.0723 90.3157 64.7425C90.3157 63.9776 90.4827 63.327 89.9378 62.7028C89.3929 62.0786 89.0413 61.9028 88.18 62.4654C87.723 62.7643 87.0902 63.1776 86.6683 63.8985C86.3959 64.3644 85.7455 64.6897 85.5346 65.5425C84.7084 68.901 83.6274 72.1539 83.8032 75.8553C83.9526 78.9148 84.5678 82.3788 85.5609 85.3855C88.0922 93.0344 90.3421 96.2697 97.8742 99.9271C98.8498 100.402 100.581 100.288 101.97 100.367C102.954 100.428 104.598 100.437 105.775 100.384C110.003 100.182 109.572 100.446 114.046 98.9072C113.975 91.8738 113.22 85.8867 113.132 82.915Z" fill="#EEEEEE"/>
</g>
<g style="mix-blend-mode:multiply">
<path d="M112.956 82.9502C110.926 83.9085 108.527 85.2009 106.338 85.3943C100.397 85.9218 95.9672 83.003 92.9526 77.9389C91.1333 74.8882 90.9487 71.732 89.894 68.479C90.1401 72.2682 89.6655 76.0399 90.8696 79.7149C93.0844 86.4933 97.7074 91.1793 104.818 92.7267C107.779 93.3685 110.812 92.3398 113.765 91.909C113.782 90.0628 113.211 83.9173 112.956 82.9502Z" fill="#EEEEEE"/>
</g>
<g style="mix-blend-mode:multiply">
<path d="M163.193 20.2561C146.266 23.3156 124.135 29.4522 108.922 37.1626C101.249 41.0573 89.05 53.2955 84.2162 61.9466C80.5336 68.5492 80.7445 79.3542 82.3265 87.4778C83.2054 91.988 87.7405 95.1706 89.1028 96.6652C91.7482 99.5665 97.7071 101.448 106.777 100.991C109.722 100.841 114.054 98.8895 114.054 98.8895C114.054 98.8895 114.054 94.7838 114.23 90.6077C114.309 88.6119 113.325 85.359 113.167 83.1611C114.072 81.9654 124.162 72.8044 124.232 72.7428C136.176 71.9779 136.185 72.3648 149.579 65.0588C156.364 61.3575 163.624 55.3264 175.357 54.4824C179.154 54.2098 181.764 55.9945 185.218 56.4078C188.285 56.777 191.23 57.4452 194.227 57.5331C204.703 57.8408 205.811 55.7923 211.497 52.2932C210.056 51.0799 207.691 49.9458 207.12 45.8752C205.978 37.6286 215.733 36.0548 214.977 22.4804C214.802 19.4033 213.817 16.4756 212.367 14.2513C210.161 10.8577 208.227 9.84662 204.615 8.49269C203.763 8.17619 202.523 9.4422 201.653 9.99608C183.926 21.2056 179.655 17.2844 163.202 20.2561H163.193Z" fill="#EEEEEE"/>
</g>
<g style="mix-blend-mode:multiply">
<path d="M248.314 18.7175C249.861 20.3088 254.897 25.074 257.05 29.6017C259.3 34.3405 258.922 37.0747 257.235 42.086C255.679 46.7105 253.104 50.3239 250.52 53.7966C246.266 59.5025 243.981 60.4344 240.255 62.9664C238.971 63.8368 235.974 65.2611 236.88 68.2327C237.284 69.569 239.068 69.7537 238.655 70.3779C238.101 71.2043 236.677 71.2219 235.588 71.2571C235.078 71.2746 233.636 71.7142 232.907 71.723C229.356 71.7582 226.649 71.3538 223.283 68.1975C222.738 67.6876 221.227 66.7205 220.866 66.2106C220.33 65.4369 221.253 64.4347 220.682 63.7753C226.931 60.5575 232.204 59.4497 238.005 54.7198C241.177 52.135 244.957 48.3457 247.356 44.0202C253.482 32.9953 252.638 30.4633 248.323 18.7L248.314 18.7175Z" fill="#EEEEEE"/>
</g>
<g style="mix-blend-mode:multiply">
<path d="M252.418 26.4719C252.313 26.9291 252.462 28.1511 252.462 29.3996C252.462 32.5646 255.486 38.2177 241.749 51.4581C234.05 58.8783 226.693 61.4895 220.444 64.2237C220.717 64.3204 220.541 64.76 220.875 65.4897C221.183 66.1755 221.543 66.1052 221.402 66.3953C224.426 65.5952 228.407 64.9534 233.197 62.2192C233.294 62.1664 239.481 58.9223 241.555 57.2343C246.776 52.9703 249.562 50.113 252.489 43.7917C257.059 33.9273 253.992 31.8876 252.427 26.4631L252.418 26.4719Z" fill="#EEEEEE"/>
</g>
<g style="mix-blend-mode:multiply">
<path d="M252.163 63.4939C249.746 65.2786 250.01 68.1447 238.496 70.6855C233.645 71.7581 232.845 72.1538 229.866 72.0659C231.887 77.3409 231.263 80.673 230.666 87.8646C232.089 86.1414 232.415 86.3261 234.084 83.0995C234.515 82.2731 234.84 81.306 235.165 80.5323C235.605 79.4685 235.614 78.4662 236.203 77.5343C238.716 73.5253 248.032 76.1804 254.633 66.7117C256.487 64.0566 257.041 57.7177 257.489 56.3374C256.487 58.0606 255.301 61.1729 252.172 63.4851L252.163 63.4939Z" fill="#EEEEEE"/>
</g>
<g style="mix-blend-mode:multiply">
<path d="M250.414 73.2879C253.965 70.7999 255.652 68.8921 257.199 64.7687C258.518 61.2344 259.124 54.2186 259.335 53.0142C258.113 55.2297 256.461 57.876 254.967 59.8366C253.2 62.1576 252.523 63.617 250.115 65.1907C247.241 67.081 242.794 70.079 239.525 70.7559C235.552 71.5736 233.83 72.0483 229.857 72.0747C230.929 75.2045 231.518 74.8441 230.455 81.0686C230.332 81.7896 229.725 87.1525 229.91 90.2384C229.918 90.4143 230.173 90.4407 230.305 90.5198C230.806 90.8275 231.29 91.4517 231.421 91.2319C232.485 89.5439 231.764 88.7614 235.86 86.9855C239.331 85.4821 243.339 85.2711 250.115 80.3126C253.464 77.8684 254.255 76.3738 255.503 74.3869C254.51 75.354 252.418 76.831 251.495 77.5519C249.834 78.8531 247.32 79.9433 245.73 80.5851C242.065 80.084 244.016 78.5015 245.818 76.7167C246.863 75.6793 248.955 74.3078 250.414 73.2879Z" fill="#EEEEEE"/>
</g>
<g style="mix-blend-mode:multiply">
<path d="M119.75 115.242C119.75 115.436 119.75 115.629 119.759 115.814C121.147 116.359 122.8 116.877 124.645 117.37C123.063 116.552 121.429 115.849 119.75 115.242Z" fill="#EEEEEE"/>
</g>
<g style="mix-blend-mode:multiply">
<path d="M226.008 115.814C226.008 115.726 226.008 115.629 225.999 115.541C224.373 116.095 222.791 116.755 221.253 117.511C222.976 116.904 224.663 116.289 226.008 115.814Z" fill="#EEEEEE"/>
</g>
<g style="mix-blend-mode:multiply">
<path d="M122.905 115.084C124.839 115.726 126.737 116.491 128.574 117.379C129.523 117.836 130.428 118.337 131.325 118.856C152.647 122.865 189.49 124.052 213.492 119.77C215.25 118.671 217.078 117.695 218.968 116.86C220.963 115.972 223.028 115.242 225.129 114.662C225.401 114.583 225.683 114.521 225.955 114.451C225.568 104.094 224.461 80.0577 224.303 69.4372C224.303 69.191 222.132 66.6678 221.297 65.3842C220.471 64.127 220.559 63.7929 220.436 63.7314C212.069 59.4498 204.862 54.4649 195.466 52.5307C175.12 48.3458 158.377 50.658 139.859 57.5068C131.835 60.4784 124.654 65.4106 117.465 70.0614C117.597 80.8841 119.434 101.299 119.724 114.152C120.796 114.425 121.85 114.724 122.905 115.075V115.084Z" fill="#EEEEEE"/>
</g>
<path d="M115.593 113.299C115.593 113.299 115.637 113.299 115.654 113.308C118.115 113.712 120.541 114.301 122.905 115.084C124.839 115.726 126.737 116.491 128.574 117.379C132.371 119.207 135.719 121.59 138.725 124.421C148.41 125.783 160.46 126.592 173.52 126.592C186.581 126.592 197.707 125.845 207.191 124.579C207.481 124.315 207.744 124.043 208.043 123.788C209.678 122.372 211.418 121.089 213.237 119.928C215.065 118.768 216.981 117.739 218.968 116.869C220.963 115.981 223.028 115.251 225.129 114.671C226.315 114.345 227.519 114.073 228.723 113.853C228.723 113.783 230.701 113.519 230.885 113.493C231.035 113.466 231.184 113.449 231.334 113.431C231.237 106.732 230.868 89.2362 230.674 79.8202C230.894 78.6685 231.008 73.7099 230.481 73.5868C225.155 69.5514 220.304 64.9094 214.362 61.7092C201.32 54.6846 187.468 51.836 172.255 51.9415C164.74 51.9943 157.612 53.2427 150.036 54.7901C145.791 55.6517 133.337 60.6366 128.723 62.9312C119.108 67.7139 116.278 71.8109 112.112 75.6529C112.121 75.7672 114.468 100.305 115.127 104.885C115.32 108.218 115.487 111.224 115.575 113.299H115.593Z" fill="#FAFAFA"/>
<path d="M268.747 224.699C268.668 223.829 268.405 222.967 268.624 222.08C267.139 215.82 265.821 209.516 263.729 203.415C263.641 203.142 263.641 202.843 263.606 202.553C263.43 202.21 263.21 201.876 263.079 201.516C260.24 193.621 256.786 185.998 252.646 178.701C252.154 177.831 252.532 177.602 253.217 177.338C253.455 177.242 253.692 177.145 253.921 177.057L254.167 176.951C254.782 176.696 255.397 176.433 255.995 176.143L258.517 175.026C258.658 174.973 258.763 174.938 258.798 174.929C258.948 174.868 259.088 174.78 259.229 174.718L259.677 174.525L259.598 174.543C260.653 174.033 261.69 173.479 262.674 172.846C264.081 171.949 265.425 170.947 266.664 169.821C266.207 170.243 265.513 170.569 264.977 170.903C264.362 171.281 263.729 171.65 263.096 172.002C261.848 172.696 260.574 173.303 259.273 173.892C259.124 173.962 258.983 174.041 258.842 174.112C258.728 174.164 258.614 174.226 258.5 174.27C258.016 174.472 257.524 174.666 257.041 174.868C253.587 176.274 250.106 177.312 246.389 177.778C238.092 178.815 229.997 177.998 222.395 174.34C209.062 167.922 200.827 157.46 198.225 142.839C196.661 134.039 197.672 125.458 201.433 117.273C201.592 116.921 201.829 116.614 202.022 116.28C204.817 110.099 209.132 105.149 214.502 101.105C220.496 96.586 227.238 93.8518 234.717 92.999C234.717 92.999 244.218 91.478 252.558 93.7287C252.022 93.588 251.495 93.3946 250.95 93.254C249.456 92.8759 247.927 92.6034 246.397 92.41C243.453 92.0407 240.482 91.9967 237.521 92.1814C236.053 92.2693 234.585 92.4187 233.126 92.6034C232.379 92.6913 231.641 92.7968 230.902 92.9111C230.718 92.9375 228.74 93.2012 228.74 93.2715C227.528 93.4913 226.332 93.7639 225.146 94.0892C223.036 94.6694 220.98 95.3991 218.985 96.2871C217.007 97.1663 215.091 98.1949 213.254 99.3466C211.426 100.507 209.695 101.791 208.06 103.206C206.425 104.622 204.896 106.151 203.481 107.787C202.066 109.431 200.774 111.18 199.623 113.027C198.454 114.882 197.434 116.833 196.564 118.847C196.037 120.069 195.571 121.317 195.158 122.583C194.727 123.92 194.297 124.078 193.031 123.586C184.084 120.139 174.882 119.269 165.416 120.922C160.495 121.783 155.916 123.533 151.486 125.968C149.693 118.583 146.406 112.077 141.361 106.512C137.714 102.485 133.53 99.1796 128.591 96.797C126.754 95.9091 124.856 95.1442 122.922 94.5024C120.558 93.7199 118.132 93.1309 115.671 92.7265C114.335 92.5067 112.999 92.3484 111.655 92.2429C110.328 92.1374 108.974 92.1902 107.656 92.0847C111.567 92.4275 115.337 93.1309 119.064 94.4057C123.854 96.0409 128.336 98.5202 132.186 101.817C143.743 111.699 148.726 124.289 147.338 139.375C146.239 151.288 140.737 160.88 131.526 168.406C130.85 168.96 130.085 169.408 129.356 169.909C125.163 173.127 120.391 175.14 115.293 176.345C106.575 178.393 97.9704 177.963 89.5419 174.859C89.5155 175.096 89.4804 175.325 89.454 175.562C91.66 176.626 93.9275 177.541 96.3005 178.147C97.3552 178.411 97.531 178.701 96.9773 179.686C94.0769 184.864 91.537 190.227 89.3046 195.722C88.3817 197.99 87.4941 200.267 86.5888 202.544C86.2988 204.874 85.4726 207.072 84.8398 209.314C83.8379 212.883 82.8008 216.435 82.168 220.093C82.0362 220.84 81.5088 221.376 81.2803 222.062C81.9746 222.748 81.5704 223.557 81.4737 224.286C80.9112 228.216 80.5245 232.164 80.7442 236.138C81.0342 241.281 81.7286 246.354 83.6709 251.18C83.9258 251.145 84.1191 251.207 84.2773 251.321C84.4443 251.435 84.5762 251.602 84.7431 251.769C89.3749 256.605 94.3846 261.018 99.6931 265.115C101.996 266.891 104.378 268.553 106.812 270.135C109.247 271.718 111.725 273.221 114.23 274.689C114.933 275.103 115.636 275.604 116.515 275.63C117.051 269.476 118.238 263.445 120.145 257.572C123.098 248.472 127.615 240.235 133.838 232.937C138.892 227.012 144.798 222.132 151.644 218.449C158.122 214.967 165.003 212.716 172.368 211.995C189.639 210.307 204.501 215.714 217.236 227.258C228.231 237.228 234.822 249.765 238.303 264.06C239.111 267.392 239.516 270.786 240.096 274.144C243.919 272.588 247.241 270.188 250.59 267.849C254.808 264.895 258.913 261.766 262.657 258.205C262.815 258.055 263.096 258.02 263.316 257.932C264.88 255.602 265.926 253.018 266.849 250.389C269.811 242.002 269.556 233.359 268.765 224.691L268.747 224.699Z" fill="#40BE46"/>
<path d="M84.7344 251.769C84.5762 251.602 84.4355 251.435 84.2685 251.321C84.1016 251.207 83.917 251.136 83.6621 251.18C87.2568 260.807 93.3738 268.421 101.925 274.1C106.162 276.914 110.486 279.586 115.197 281.969C112.534 283.639 110.02 285.222 107.498 286.796C107.603 287.613 108.35 287.684 108.895 287.912C115.777 290.699 122.887 292.73 130.182 294.075C131.421 294.304 132.81 295.095 134.093 294.058C133.328 292.537 132.687 290.972 132.326 289.301C132.071 289.161 131.825 288.985 131.553 288.888C127.062 287.341 122.685 285.521 118.369 283.525C117.649 283.191 116.946 282.91 116.919 281.907C116.875 279.903 116.744 277.907 116.656 275.903C116.603 275.815 116.55 275.718 116.497 275.63C115.619 275.604 114.915 275.103 114.212 274.689C111.707 273.221 109.229 271.718 106.794 270.135C104.36 268.553 101.978 266.9 99.6755 265.115C94.367 261.027 89.3661 256.605 84.7256 251.769H84.7344Z" fill="#40BE46"/>
<path d="M134.102 294.049C135.112 294.955 136.308 295.377 137.644 295.649C141.212 296.379 144.059 299.403 144.569 302.823C145.123 306.516 143.462 310.085 140.368 311.861C137.081 313.743 133.284 313.488 130.322 311.079C128.002 309.188 126.956 306.665 127.123 303.685C127.176 302.779 127.027 301.944 126.816 301.082C126.552 300.001 125.691 299.992 124.891 299.852C124.038 299.702 123.836 300.37 123.546 300.942C122.975 302.085 122.606 303.307 122.219 304.52C122.008 305.179 122.096 305.716 122.377 306.34C123.959 309.927 123.414 313.25 120.874 316.187C118.668 318.727 114.564 319.695 111.409 318.455C107.761 317.022 105.731 314.261 105.582 310.375C105.459 307.184 106.865 304.581 109.545 302.762C111.242 301.601 112.367 298.884 111.998 296.845C111.883 296.229 111.576 296.141 111.075 296.273C108.974 296.792 107.102 297.258 106.381 299.939C105.169 304.458 100.379 306.841 95.7293 305.654C91.203 304.502 88.2587 300.001 89.0497 295.456C89.8407 290.928 94.0418 287.64 98.6032 288.088C99.7985 288.202 100.976 288.282 102.084 287.912C103.85 287.323 105.801 287.675 107.498 286.796C107.603 287.613 108.35 287.684 108.895 287.912C115.777 290.699 122.887 292.73 130.182 294.075C131.421 294.304 132.81 295.095 134.093 294.058L134.102 294.049Z" fill="#40BE46"/>
<path d="M242.407 287.965C244.007 289.003 245.51 289.134 247.47 288.457C251.996 286.892 256.936 289.618 258.43 294.119C259.959 298.735 257.568 303.694 252.998 305.373C248.358 307.078 243.313 304.986 241.59 300.405C240.5 297.522 238.039 296.678 235.605 295.702C234.875 295.412 234.568 295.913 234.489 296.634C234.26 298.735 235.552 301.223 237.459 302.296C242.715 305.232 243.884 311.527 240.008 316.064C237.811 318.631 233.961 319.633 230.595 318.516C227.291 317.417 224.935 314.393 224.654 310.999C224.531 309.443 224.707 307.966 225.348 306.56C225.656 305.883 225.533 305.25 225.419 304.555C225.216 303.351 224.645 302.225 224.751 300.959C224.812 300.256 224.812 299.5 223.907 299.333C222.966 299.157 221.973 299.131 221.437 300.115C220.901 301.1 220.506 302.12 220.646 303.333C221.165 307.817 218.282 311.87 213.923 312.872C209.634 313.866 205.204 311.483 203.71 307.395C202.163 303.148 203.947 298.629 207.937 296.493C209.599 295.605 211.356 295.341 213.184 295.333C215.426 295.271 217.649 294.981 219.873 294.787C225.84 294.278 231.623 292.95 237.196 290.814C239.033 290.11 241.028 289.574 242.407 287.965Z" fill="#40BE46"/>
<path d="M240.632 279.569C239.164 280.703 237.459 281.406 235.851 282.294C235.42 282.532 234.761 282.567 234.735 283.279C234.119 283.165 233.592 283.411 233.056 283.657C231.588 284.334 230.112 284.993 228.635 285.644C224.241 287.578 219.653 289.003 215.135 290.62C211.242 291.561 207.375 292.607 203.455 293.425C196.898 294.796 190.263 295.623 183.557 296.001C179.584 296.229 175.62 296.317 171.657 296.177C159.932 295.763 148.384 294.128 137.143 290.655C135.552 290.163 133.944 289.75 132.344 289.293C132.089 289.152 131.843 288.976 131.571 288.879C127.079 287.332 122.703 285.512 118.387 283.516C117.666 283.182 116.963 282.901 116.937 281.899C116.893 279.894 116.761 277.899 116.673 275.894C120.163 277.547 123.59 279.358 127.167 280.809C135.78 284.308 144.64 286.98 153.815 288.686C161.233 290.066 168.704 290.62 176.201 290.866C179.742 290.981 183.32 290.629 186.879 290.383C191.071 290.093 195.211 289.548 199.342 288.853C205.564 287.816 211.673 286.268 217.64 284.264C224.601 281.934 231.404 279.165 237.828 275.56C238.496 275.182 239.138 274.663 239.99 274.725C240.632 276.281 240.693 277.907 240.658 279.551L240.632 279.569Z" fill="#40BE46"/>
<path d="M215.126 290.62C219.644 289.002 224.232 287.578 228.626 285.644C230.103 284.993 231.579 284.334 233.047 283.657C233.592 283.402 234.11 283.156 234.726 283.279C237.283 284.844 239.841 286.4 242.398 287.965C241.027 289.574 239.023 290.11 237.187 290.814C231.614 292.95 225.831 294.269 219.864 294.787C217.631 294.981 215.416 295.271 213.175 295.333C213.562 293.653 214.836 292.343 215.118 290.629L215.126 290.62Z" fill="#40BE46"/>
<path d="M240.632 279.569C240.667 277.925 240.605 276.29 239.964 274.742C239.999 274.549 240.034 274.347 240.069 274.153C243.892 272.597 247.215 270.197 250.563 267.858C254.782 264.904 258.886 261.774 262.63 258.214C262.789 258.064 263.07 258.029 263.29 257.941C260.486 263.146 256.61 267.48 252.216 271.357C248.647 274.505 244.886 277.397 240.623 279.578L240.632 279.569Z" fill="#40BE46"/>
<path d="M240.069 274.144C240.034 274.338 239.999 274.54 239.964 274.733C239.111 274.672 238.47 275.191 237.802 275.569C231.377 279.173 224.575 281.934 217.614 284.272C211.646 286.268 205.538 287.824 199.315 288.862C195.185 289.548 191.045 290.101 186.853 290.392C183.293 290.638 179.725 290.989 176.174 290.875C168.677 290.629 161.207 290.075 153.789 288.695C144.613 286.989 135.754 284.325 127.141 280.817C123.573 279.367 120.145 277.556 116.647 275.903C116.594 275.815 116.542 275.718 116.489 275.63C117.025 269.476 118.211 263.445 120.119 257.572C123.072 248.472 127.589 240.235 133.812 232.937C138.865 227.012 144.771 222.132 151.618 218.449C158.095 214.967 164.977 212.716 172.342 211.995C189.612 210.307 204.474 215.714 217.21 227.258C228.204 237.228 234.796 249.765 238.277 264.06C239.085 267.392 239.489 270.786 240.069 274.144Z" fill="#C3E0B6"/>
<path d="M175.278 160.74C178.855 160.74 182.432 160.74 186.009 160.74C186.404 160.74 186.809 160.696 187.178 160.775C188.496 161.047 188.953 161.83 188.25 162.929C185.701 166.92 182.212 169.786 177.51 170.709C171.2 171.949 166.392 169.25 162.604 164.406C162.103 163.773 161.875 162.929 161.532 162.164C161.277 161.592 161.479 161.188 162.077 161.056C162.833 160.889 163.588 160.722 164.388 160.731C168.018 160.766 171.639 160.748 175.269 160.748L175.278 160.74Z" fill="#308E33"/>
<path d="M105.678 178.411C129.536 178.411 148.876 159.065 148.876 135.2C148.876 111.334 129.536 91.988 105.678 91.988C81.8211 91.988 62.481 111.334 62.481 135.2C62.481 159.065 81.8211 178.411 105.678 178.411Z" fill="white"/>
<path d="M107.568 174.639C83.7061 174.639 64.3706 155.289 64.3706 131.428C64.3706 125.221 65.6889 119.33 68.0443 113.994C64.5112 120.262 62.481 127.489 62.481 135.2C62.481 159.069 81.8253 178.411 105.678 178.411C123.335 178.411 138.505 167.808 145.211 152.625C137.802 165.76 123.731 174.631 107.577 174.631L107.568 174.639Z" fill="#DCDDDC"/>
<path d="M98.5156 115.304C99.6406 117.449 101.354 118.574 103.789 118.003C105.564 117.59 106.707 116.359 106.988 114.539C107.357 112.121 106.241 110.477 104.009 109.536C111.681 103.646 123.88 105.325 130.481 113.106C137.459 121.326 136.659 133.529 128.67 140.87C120.848 148.053 108.632 147.781 101.073 140.246C93.0753 132.281 94.2179 120.755 98.5244 115.295L98.5156 115.304Z" fill="#323232"/>
<path d="M240.72 178.508C264.577 178.508 283.917 159.161 283.917 135.296C283.917 111.431 264.577 92.0847 240.72 92.0847C216.863 92.0847 197.522 111.431 197.522 135.296C197.522 159.161 216.863 178.508 240.72 178.508Z" fill="white"/>
<path d="M242.609 174.736C218.748 174.736 199.412 155.385 199.412 131.525C199.412 125.318 200.73 119.427 203.086 114.091C199.553 120.359 197.522 127.586 197.522 135.296C197.522 159.166 216.867 178.508 240.72 178.508C258.377 178.508 273.546 167.905 280.252 152.722C272.843 165.856 258.772 174.727 242.618 174.727L242.609 174.736Z" fill="#DCDDDC"/>
<path d="M212.446 115.401C213.571 117.546 215.285 118.671 217.719 118.1C219.495 117.686 220.637 116.456 220.918 114.636C221.287 112.218 220.171 110.574 217.939 109.633C225.612 103.743 237.811 105.422 244.411 113.203C251.389 121.423 250.59 133.626 242.601 140.967C234.778 148.15 222.562 147.877 215.003 140.343C207.005 132.377 208.148 120.851 212.455 115.392L212.446 115.401Z" fill="#323232"/>
<path d="M266.348 214.07C266.348 214.07 274.056 219.917 284.146 204.276C284.146 204.276 284.735 195.502 291.599 196.241C291.599 196.241 297.109 196.487 295.158 202.87C295.158 202.87 294.227 205.894 289.551 206.914V223.926C289.551 223.926 271.129 232.682 268.607 235.733L266.339 214.079L266.348 214.07Z" fill="#40BE46"/>
<path d="M61.5231 217.701C60.9166 218.106 60.2399 218.554 59.4489 219.038C58.2976 219.75 56.9353 220.532 55.3533 221.368C55.2742 221.412 55.2039 221.464 55.1248 221.517C54.3513 221.983 53.5603 222.379 52.7518 222.704L52.7166 222.721C50.4842 223.609 48.1112 223.979 45.6943 223.961C44.1474 223.952 42.5479 223.231 41.3614 222.009C39.4629 220.058 38.0831 217.842 37.3712 215.169C36.545 212.048 33.9523 210.281 31.0344 210.624C28.5208 210.923 26.7278 212.637 26.3675 215.073C26.0159 217.464 27.4397 220.075 29.6809 220.937C32.2297 221.921 34.6994 223.029 36.8526 224.726C37.9249 225.57 38.8126 226.537 39.1905 227.953C39.5245 229.227 39.1905 229.975 38.0919 230.678C35.587 232.278 32.7394 232.542 29.9358 232.981C26.8069 233.474 23.6517 233.386 20.4965 233.491C17.1919 233.597 13.9576 233.192 10.6969 232.964C8.37663 232.797 6.35518 233.544 5.072 235.628C3.71851 237.843 3.55152 240.129 5.1511 242.283C6.72431 244.402 8.92154 245.079 11.4615 244.446C13.3336 243.98 15.1792 243.373 16.8755 242.441C19.31 241.114 21.8852 240.402 24.6273 240.129C27.6331 239.83 30.6389 239.461 33.6447 239.136C35.2267 238.969 36.6505 239.461 38.3292 240.226C36.923 241.228 35.7189 242.16 34.4445 242.978C31.7551 244.718 28.8899 246.125 26.0072 247.523C22.8783 249.035 19.644 250.169 16.4097 251.374C14.2828 252.174 12.8502 253.792 12.5777 256.148C12.2877 258.609 13.0523 260.684 15.2759 261.985C17.5083 263.287 19.7407 263.164 21.8148 261.625C23.3353 260.5 24.7152 259.19 25.849 257.677C27.721 255.172 30.0149 253.202 32.7043 251.638C35.1652 250.205 37.5909 248.701 40.0254 247.224C40.6319 246.855 41.291 246.635 41.9854 246.503C43.1455 246.292 43.5058 246.547 43.1894 247.708C42.4775 250.301 41.5108 252.789 39.2344 254.495C37.503 255.796 36.2726 257.326 36.7648 259.726C37.213 261.915 38.1182 262.917 40.2979 263.401C43.7607 264.166 47.1181 261.616 47.2587 258.064C47.4257 253.792 48.8846 249.932 50.9325 246.248C51.2225 245.73 51.6795 245.554 52.1805 245.369C56.2146 243.883 59.4137 241.465 61.0573 237.342C61.3297 236.665 61.7428 236.146 62.2789 235.672C63.4654 234.634 64.608 233.553 65.7681 232.48C67.8247 230.731 75.2162 226.388 76.0423 225.737C79.2503 224.559 82.344 223.662 82.344 223.662L87.1691 202.254V201.006C87.1691 201.006 71.8764 209.499 61.5319 217.675L61.5231 217.701Z" fill="#40BE46"/>
<path d="M285.077 290.462C273.652 205.753 259.546 191.643 259.546 191.643C227.449 200.716 199.597 204.092 176.473 204.47C153.349 204.092 123.907 199.3 91.8096 190.227C91.8096 190.227 79.2854 205.745 67.8599 290.453C67.8599 290.453 115.32 298.665 176.464 298.48C237.609 298.665 285.069 290.453 285.069 290.453L285.077 290.462Z" fill="white"/>
<g style="mix-blend-mode:multiply">
<path d="M285.078 290.462C273.749 205.41 259.546 191.643 259.546 191.643L258.816 191.845C263.615 205.112 260.899 212.769 253.139 218.985C250.379 221.2 256.206 220.181 261.031 217.121C262.183 216.391 262.411 219.477 255.195 223.645C249.825 226.748 256.303 225.403 260.258 227.056C267.386 230.027 266.48 238.74 266.665 247.998C266.779 253.704 267.298 260.579 265.681 269.072C261.734 289.846 266.182 284.738 269.68 269.247C270.629 265.045 273.028 283.288 269.556 292.704C277.959 291.587 285.086 290.453 285.086 290.453L285.078 290.462Z" fill="#E2E2E2"/>
</g>
<path d="M176.262 274.918C171.147 274.153 168.071 269.546 173.959 269.546C179.848 269.546 201.064 266.038 203.639 248.815C205.81 234.247 201.53 224.304 200.185 221.64C177.273 222.264 143.725 221.42 139.788 221.315C138.795 245.184 139.032 266.003 139.032 266.214C138.979 267.067 139.533 268.148 140.605 269.291C142.961 271.815 147.768 274.566 154.975 276.43C168.018 278.698 180.533 275.56 176.262 274.918Z" fill="white"/>
<g style="mix-blend-mode:multiply">
<path d="M149.658 275.182C142.038 272.272 138.505 268.412 138.654 266.223C138.654 266.223 138.399 245.237 139.419 220.919C139.419 220.919 175.55 221.921 199.992 221.262C199.869 221.042 199.799 220.919 199.799 220.919L202.945 220.787C178.837 221.614 139.858 220.55 139.437 220.532H139.059L139.041 220.901C138.03 244.947 138.268 266.012 138.276 266.188C138.206 267.234 138.821 268.491 140.061 269.81C141.713 271.577 144.358 273.379 148.006 274.944C147.566 274.61 147.364 274.408 147.364 274.408C148.12 274.689 148.893 274.944 149.676 275.182H149.658Z" fill="#E2E2E2"/>
</g>
<g style="mix-blend-mode:multiply">
<path d="M209.132 220.515L208.728 220.532C208.394 220.55 208.051 220.567 207.708 220.585L209.132 220.523V220.506V220.515Z" fill="#E2E2E2"/>
</g>
<path d="M139.419 220.919C138.399 245.228 138.654 266.223 138.654 266.223C138.505 268.412 142.038 272.272 149.658 275.182C151.416 275.709 153.2 276.122 154.975 276.439C147.777 274.575 142.961 271.815 140.605 269.3C139.533 268.157 138.979 267.076 139.032 266.223C139.032 266.012 138.795 245.193 139.788 221.323C143.725 221.429 177.273 222.273 200.185 221.649C200.106 221.499 200.045 221.376 199.992 221.271C175.559 221.93 139.419 220.928 139.419 220.928V220.919Z" fill="white"/>
<g style="mix-blend-mode:multiply">
<path d="M139.419 220.919C138.399 245.228 138.654 266.223 138.654 266.223C138.505 268.412 142.038 272.272 149.658 275.182C151.416 275.709 153.2 276.122 154.975 276.439C147.777 274.575 142.961 271.815 140.605 269.3C139.533 268.157 138.979 267.076 139.032 266.223C139.032 266.012 138.795 245.193 139.788 221.323C143.725 221.429 177.273 222.273 200.185 221.649C200.106 221.499 200.045 221.376 199.992 221.271C175.559 221.93 139.419 220.928 139.419 220.928V220.919Z" fill="#E2E2E2"/>
</g>
<g style="mix-blend-mode:multiply">
<path d="M202.945 220.787C204.615 220.734 206.206 220.664 207.718 220.585L202.945 220.787Z" fill="#E2E2E2"/>
</g>
<path d="M208.368 266.214V221.323C205.872 221.455 203.112 221.561 200.185 221.64C201.53 224.304 205.81 234.247 203.639 248.815C201.073 266.038 179.848 269.546 173.959 269.546C168.071 269.546 171.147 274.153 176.262 274.918C180.542 275.56 168.018 278.698 154.975 276.43C160.09 277.758 166.409 278.628 173.959 278.628C190.878 278.628 208.368 273.986 208.368 266.214Z" fill="white"/>
<g style="mix-blend-mode:multiply">
<path d="M208.368 266.214V221.323C205.872 221.455 203.112 221.561 200.185 221.64C201.53 224.304 205.81 234.247 203.639 248.815C201.073 266.038 179.848 269.546 173.959 269.546C168.071 269.546 171.147 274.153 176.262 274.918C180.542 275.56 168.018 278.698 154.975 276.43C160.09 277.758 166.409 278.628 173.959 278.628C190.878 278.628 208.368 273.986 208.368 266.214Z" fill="#E2E2E2"/>
</g>
<g style="mix-blend-mode:multiply">
<path d="M209.133 266.214V220.523L207.709 220.585C206.197 220.664 204.606 220.726 202.936 220.787L199.79 220.919C199.79 220.919 199.86 221.042 199.983 221.262C203.13 221.174 206.092 221.069 208.746 220.919V266.223C208.746 274.153 191.608 279.024 173.951 279.024C163.413 279.024 155.38 277.371 149.649 275.191C148.876 274.953 148.103 274.707 147.338 274.417C147.338 274.417 147.549 274.619 147.979 274.953C153.93 277.503 162.551 279.402 173.942 279.402C190.992 279.402 209.124 274.786 209.124 266.223L209.133 266.214Z" fill="#E2E2E2"/>
</g>
<path d="M208.368 221.324V266.214C208.368 273.986 190.869 278.628 173.96 278.628C166.41 278.628 160.099 277.749 154.975 276.43C153.2 276.123 151.416 275.709 149.658 275.173C155.389 277.362 163.422 279.006 173.96 279.006C191.616 279.006 208.755 274.144 208.755 266.205V220.901C206.1 221.051 203.139 221.156 199.992 221.244C200.045 221.35 200.115 221.473 200.186 221.622C203.112 221.543 205.872 221.438 208.368 221.306V221.324Z" fill="white"/>
<g style="mix-blend-mode:multiply">
<path d="M208.368 221.324V266.214C208.368 273.986 190.869 278.628 173.96 278.628C166.41 278.628 160.099 277.749 154.975 276.43C153.2 276.123 151.416 275.709 149.658 275.173C155.389 277.362 163.422 279.006 173.96 279.006C191.616 279.006 208.755 274.144 208.755 266.205V220.901C206.1 221.051 203.139 221.156 199.992 221.244C200.045 221.35 200.115 221.473 200.186 221.622C203.112 221.543 205.872 221.438 208.368 221.306V221.324Z" fill="#E2E2E2"/>
</g>
<path d="M92.2489 191.669C92.2489 191.669 83.8467 184.794 96.9686 179.677C96.9686 179.677 88.8652 184.126 98.7791 192.97L92.2577 191.669H92.2489Z" fill="white"/>
<path d="M259.546 191.651C259.546 191.651 267.06 183.809 253.42 180.31C253.42 180.31 261.998 183.44 253.227 193.41L259.546 191.643V191.651Z" fill="white"/>
<path d="M310.838 97.6499H280.332C279.119 97.6499 278.143 98.6522 278.169 99.8654L279.022 134.953C279.127 139.446 280.077 143.868 281.817 148.009L289.428 166.164C291.159 170.287 291.968 174.745 291.783 179.22C291.643 182.701 291.432 186.174 291.168 189.647C290.052 204.232 289.437 220.093 289.437 236.683C289.437 246.318 289.648 255.699 290.034 264.737C290.166 267.691 292.583 270.021 295.528 270.047C298.489 270.074 301.012 267.568 301.135 264.605C301.522 255.611 301.732 246.266 301.732 236.683C301.732 220.093 301.117 204.224 300.001 189.647C299.737 186.174 299.526 182.693 299.386 179.22C299.201 174.745 300.01 170.287 301.741 166.164L309.352 148.009C311.084 143.868 312.033 139.437 312.147 134.953L313 99.8654C313.026 98.6522 312.051 97.6499 310.838 97.6499ZM288.91 127.217C288.91 128.105 288.189 128.825 287.301 128.825C286.413 128.825 285.693 128.105 285.693 127.217V113.66C285.693 112.772 286.413 112.051 287.301 112.051C288.189 112.051 288.91 112.772 288.91 113.66V127.217ZM291.212 132.043V108.842C291.212 107.954 291.933 107.233 292.821 107.233C293.708 107.233 294.429 107.954 294.429 108.842V132.043C294.429 132.931 293.708 133.652 292.821 133.652C291.933 133.652 291.212 132.931 291.212 132.043ZM298.085 264.438C298.085 265.757 297.013 266.83 295.695 266.83C294.376 266.83 293.304 265.757 293.304 264.438C293.304 263.12 294.376 262.047 295.695 262.047C297.013 262.047 298.085 263.12 298.085 264.438ZM299.948 132.043C299.948 132.931 299.228 133.652 298.34 133.652C297.452 133.652 296.732 132.931 296.732 132.043V108.842C296.732 107.954 297.452 107.233 298.34 107.233C299.228 107.233 299.948 107.954 299.948 108.842V132.043ZM305.468 127.217C305.468 128.105 304.747 128.825 303.859 128.825C302.972 128.825 302.251 128.105 302.251 127.217V113.66C302.251 112.772 302.972 112.051 303.859 112.051C304.747 112.051 305.468 112.772 305.468 113.66V127.217Z" fill="#59666E"/>
<g style="mix-blend-mode:multiply">
<path d="M310.838 97.6499H280.332C279.119 97.6499 278.143 98.6522 278.169 99.8654L279.022 134.953C279.04 135.824 279.092 136.694 279.18 137.564C279.488 140.765 282.168 143.218 285.385 143.218H305.784C309.001 143.218 311.682 140.765 311.989 137.564C312.077 136.703 312.13 135.832 312.147 134.953L313 99.8654C313.026 98.6522 312.051 97.6499 310.838 97.6499ZM288.91 127.217C288.91 128.105 288.189 128.825 287.301 128.825C286.413 128.825 285.693 128.105 285.693 127.217V113.66C285.693 112.772 286.413 112.051 287.301 112.051C288.189 112.051 288.91 112.772 288.91 113.66V127.217ZM294.429 132.043C294.429 132.931 293.708 133.652 292.821 133.652C291.933 133.652 291.212 132.931 291.212 132.043V108.842C291.212 107.954 291.933 107.233 292.821 107.233C293.708 107.233 294.429 107.954 294.429 108.842V132.043ZM299.948 132.043C299.948 132.931 299.228 133.652 298.34 133.652C297.452 133.652 296.732 132.931 296.732 132.043V108.842C296.732 107.954 297.452 107.233 298.34 107.233C299.228 107.233 299.948 107.954 299.948 108.842V132.043ZM305.468 127.217C305.468 128.105 304.747 128.825 303.859 128.825C302.972 128.825 302.251 128.105 302.251 127.217V113.66C302.251 112.772 302.972 112.051 303.859 112.051C304.747 112.051 305.468 112.772 305.468 113.66V127.217Z" fill="#E2E2E2"/>
</g>
<path d="M306.812 202.026C306.724 201.041 306.347 200.162 305.608 199.801C304.703 199.362 303.631 199.459 302.708 199.054C302.093 198.782 301.53 198.404 300.889 198.175C299.834 197.788 298.63 197.551 297.522 197.885C296.898 198.069 296.266 198.483 295.897 199.028C295.404 199.74 295.316 200.716 295.158 201.551C294.974 202.492 294.912 203.476 294.965 204.435C295.009 205.129 295.158 205.762 295.624 206.299C296.389 207.169 297.681 207.441 298.797 207.362C300.282 207.257 301.768 206.993 303.218 206.65C304.097 206.439 305.213 206.325 305.872 205.63C306.549 204.918 306.935 203.38 306.812 202.043V202.026Z" fill="#40BE46"/>
<path d="M305.854 207.512C304.729 206.404 302.585 207.046 301.284 207.477C300.001 207.907 298.753 208.47 297.408 208.646C296.582 208.76 295.905 208.998 295.343 209.631C294.736 210.316 294.482 211.222 294.42 212.119C294.376 212.796 294.341 213.367 294.666 214.009C295.448 215.583 297.514 216.268 299.157 216.04C300.625 215.838 302.181 215.565 303.534 214.95C304.8 214.369 305.626 213.253 306.021 211.952C306.224 211.301 306.329 210.624 306.373 209.947C306.417 209.27 306.496 208.514 306.153 207.907C306.074 207.767 305.969 207.635 305.854 207.521V207.512Z" fill="#40BE46"/>
<path d="M305.415 215.723C305.749 216.541 305.705 217.877 305.679 218.475C305.635 219.706 305.336 220.954 304.712 222.027C303.218 224.594 299.025 225.851 296.45 224.269C295.448 223.653 294.701 222.651 294.438 221.499C294.095 220.014 294.288 218.343 294.279 216.831C294.279 216.638 294.279 216.444 294.35 216.268C294.701 215.398 295.431 216.286 295.826 216.541C296.846 217.2 298.551 217.104 299.702 216.963C300.546 216.857 301.363 216.646 302.145 216.321C302.901 216.013 303.543 215.416 304.281 215.134C304.51 215.046 304.782 215.038 304.993 215.169C305.178 215.284 305.309 215.486 305.406 215.732L305.415 215.723Z" fill="#40BE46"/>
<path d="M173.687 262.882L156.215 252.728L156.171 236.595L173.634 246.749L173.678 262.882H173.687Z" fill="url(#paint0_linear_3447_1677)"/>
<path d="M173.643 246.749L156.18 236.595L173.696 226.476L191.159 236.63L173.643 246.749Z" fill="#86C7F7"/>
<path fill-rule="evenodd" clip-rule="evenodd" d="M174.048 231.979L173.037 232.094L172.888 232.155H172.729L172.589 232.217L171.798 232.401L171.684 232.454H171.578L171.481 232.533L170.022 233.078L169.952 233.14C169.293 233.395 168.757 233.755 168.186 234.054L168.124 234.124C167.605 234.415 167.43 234.564 167.069 234.916L166.981 234.977L166.621 235.461L166.551 235.522L166.428 235.769L166.366 235.839C165.953 236.78 165.962 236.929 166.05 238.028L166.12 238.142V238.257L166.173 238.353L166.305 238.696L166.366 238.775L166.428 238.951L166.498 239.013C166.709 239.391 166.964 239.69 167.219 239.962C167.359 240.12 167.957 240.604 168.194 240.727L168.256 240.797C168.739 241.026 169.091 241.316 169.697 241.527L169.776 241.58L170.954 241.949L171.086 242.011C171.49 242.055 171.921 242.178 172.369 242.23C172.861 242.292 173.125 242.055 173.529 241.879L173.608 241.817H173.661L173.74 241.756L175.612 240.894L175.691 240.833H175.744L175.823 240.771L176.904 240.261L176.807 240.217C176.175 240.191 175.428 240.287 174.742 240.27C174.057 240.252 173.415 240.129 172.791 240.094L172.659 240.033C172.202 239.989 171.745 239.795 171.358 239.663L171.27 239.611C170.638 239.382 170.058 238.881 169.776 238.371C169.346 237.544 169.609 236.938 169.943 236.243L170.014 236.182L170.075 236.067L170.145 236.006C170.488 235.522 171.314 234.854 172.141 234.59L172.228 234.538L173.099 234.291L173.222 234.23H173.353L173.485 234.168L174.065 234.116C174.206 234.028 174.276 234.037 174.478 234.037H175.823C176.034 234.037 176.219 234.037 176.368 234.116L177.15 234.221L177.247 234.291C177.721 234.362 178.117 234.626 178.521 234.775L178.592 234.837L178.838 234.951L178.899 235.021C179.321 235.241 180.068 235.927 180.226 236.472L180.279 236.56C180.455 237.175 180.411 237.377 180.279 237.984L180.226 238.098L180.007 238.573L180.332 238.441L180.402 238.38L182.995 237.043L183.065 236.982L183.68 236.674L183.751 236.613L184.366 236.305L184.436 236.234C184.463 236.103 183.663 235.443 183.487 235.276L183.425 235.188C183.215 235.012 182.916 234.749 182.67 234.599L182.608 234.529C182.362 234.388 182.151 234.168 181.914 234.054L181.852 233.984L181.228 233.623L181.167 233.553L180.349 233.131L180.27 233.069L179.224 232.639L179.137 232.586L178.504 232.41L178.407 232.34H178.293L178.17 232.287H178.055L177.941 232.217C177.423 232.164 176.86 231.997 176.28 231.944C175.586 231.883 174.909 231.962 174.285 231.909L174.039 231.97L174.048 231.979Z" fill="url(#paint1_linear_3447_1677)"/>
<path d="M173.643 246.749L173.687 262.882L182.098 258.029V241.861L173.643 246.749Z" fill="#A9DCFC"/>
<path d="M191.203 252.772L191.16 236.63L182.749 241.492V257.651L191.203 252.772Z" fill="#A9DCFC"/>
<path d="M182.749 241.492L182.098 241.861V258.029L182.749 257.651V241.492Z" fill="#A9DCFC"/>
<path d="M182.749 241.492L182.098 241.861V258.029L182.749 257.651V241.492Z" fill="url(#paint2_linear_3447_1677)"/>
</g>
</g>
<defs>
<filter id="filter0_d_3447_1677" x="0" y="0" width="345" height="344" filterUnits="userSpaceOnUse" color-interpolation-filters="sRGB">
<feFlood flood-opacity="0" result="BackgroundImageFix"/>
<feColorMatrix in="SourceAlpha" type="matrix" values="0 0 0 0 0 0 0 0 0 0 0 0 0 0 0 0 0 0 127 0" result="hardAlpha"/>
<feOffset dy="4"/>
<feGaussianBlur stdDeviation="2"/>
<feComposite in2="hardAlpha" operator="out"/>
<feColorMatrix type="matrix" values="0 0 0 0 0 0 0 0 0 0 0 0 0 0 0 0 0 0 0.25 0"/>
<feBlend mode="normal" in2="BackgroundImageFix" result="effect1_dropShadow_3447_1677"/>
<feBlend mode="normal" in="SourceGraphic" in2="effect1_dropShadow_3447_1677" result="shape"/>
</filter>
<linearGradient id="paint0_linear_3447_1677" x1="157.085" y1="249.536" x2="170.963" y2="249.888" gradientUnits="userSpaceOnUse">
<stop stop-color="#0086FD"/>
<stop offset="1" stop-color="#21AFFF"/>
</linearGradient>
<linearGradient id="paint1_linear_3447_1677" x1="165.988" y1="237.078" x2="184.454" y2="237.078" gradientUnits="userSpaceOnUse">
<stop stop-color="#0086FD"/>
<stop offset="1" stop-color="#21AFFF"/>
</linearGradient>
<linearGradient id="paint2_linear_3447_1677" x1="182.098" y1="249.756" x2="182.749" y2="249.756" gradientUnits="userSpaceOnUse">
<stop stop-color="#0086FD"/>
<stop offset="1" stop-color="#21AFFF"/>
</linearGradient>
<clipPath id="clip0_3447_1677">
<rect width="309" height="319" fill="white" transform="translate(4)"/>
</clipPath>
</defs>
</svg>
